<svg width="20" height="20" viewBox="0 0 20 20" fill="none" xmlns="http://www.w3.org/2000/svg">
  <path d="M2.5 5H4.16667H17.5" stroke="#FF6B6B" stroke-width="1.66667" stroke-linecap="round" stroke-linejoin="round"/>
  <path d="M15.8334 5.00001V16.6667C15.8334 17.1087 15.6578 17.5326 15.345 17.8452C15.0324 18.1578 14.6085 18.3333 14.1667 18.3333H5.83341C5.39139 18.3333 4.96746 18.1578 4.65486 17.8452C4.34226 17.5326 4.16675 17.1087 4.16675 16.6667V5.00001M6.66675 5.00001V3.33334C6.66675 2.89131 6.84226 2.46739 7.15486 2.15479C7.46746 1.84219 7.89139 1.66667 8.33341 1.66667H11.6667C12.1088 1.66667 12.5327 1.84219 12.8453 2.15479C13.1579 2.46739 13.3334 2.89131 13.3334 3.33334V5.00001" stroke="#FF6B6B" stroke-width="1.66667" stroke-linecap="round" stroke-linejoin="round"/>
  <path d="M8.33325 9.16667V14.1667" stroke="#FF6B6B" stroke-width="1.66667" stroke-linecap="round" stroke-linejoin="round"/>
  <path d="M11.6667 9.16667V14.1667" stroke="#FF6B6B" stroke-width="1.66667" stroke-linecap="round" stroke-linejoin="round"/>
</svg>
